<?xml version="1.0" standalone="no"?>
<!DOCTYPE svg PUBLIC "-//W3C//DTD SVG 20010904//EN"
 "http://www.w3.org/TR/2001/REC-SVG-20010904/DTD/svg10.dtd">
<svg version="1.0" xmlns="http://www.w3.org/2000/svg"
 width="16pt" height="16pt" viewBox="0 0 2048.000000 2048.000000"
 preserveAspectRatio="xMidYMid meet">

<g transform="translate(0.000000,2048.000000) scale(0.100000,-0.100000)"
fill="#000000" stroke="none">
<path d="M6475 15920 c-66 -4 -196 -11 -290 -14 -166 -7 -384 -27 -495 -46
-30 -6 -95 -14 -145 -19 -49 -5 -151 -23 -225 -39 -74 -16 -160 -33 -190 -36
-30 -4 -100 -20 -155 -35 -55 -16 -117 -31 -139 -34 -40 -6 -161 -49 -211 -75
-55 -28 -87 -68 -92 -116 -5 -39 -1 -49 28 -86 19 -23 43 -46 54 -51 11 -5 38
-23 60 -39 22 -16 48 -29 59 -30 10 0 44 -16 76 -35 32 -19 63 -35 69 -35 7 0
37 -16 67 -35 30 -19 61 -35 69 -35 9 0 33 -12 55 -26 22 -14 53 -34 69 -43
28 -15 146 -85 215 -126 74 -45 96 -60 96 -67 0 -4 8 -8 18 -8 9 0 28 -9 42
-20 37 -29 162 -110 169 -110 4 0 17 -9 29 -20 12 -11 49 -36 82 -56 33 -19
60 -39 60 -44 0 -6 6 -10 13 -10 7 0 31 -15 53 -32 22 -18 47 -37 56 -43 42
-26 130 -88 146 -104 16 -16 84 -64 120 -86 9 -5 21 -15 27 -21 5 -6 46 -39
90 -73 44 -34 94 -75 110 -91 17 -17 34 -30 38 -30 5 0 22 -12 37 -27 34 -33
54 -51 140 -123 103 -86 336 -319 517 -515 91 -99 174 -187 185 -197 10 -9 18
-20 18 -25 0 -4 30 -37 65 -72 36 -36 65 -68 65 -72 0 -5 15 -24 33 -42 17
-19 47 -52 65 -73 18 -21 66 -78 107 -125 41 -48 75 -91 75 -97 0 -6 14 -21
30 -34 17 -12 30 -27 30 -33 0 -6 16 -26 35 -45 19 -19 35 -38 35 -42 0 -5 14
-24 31 -42 17 -19 43 -52 59 -73 l28 -38 -121 -39 c-67 -21 -162 -51 -212 -66
-49 -15 -135 -42 -190 -59 -55 -17 -122 -35 -150 -40 -27 -5 -99 -23 -160 -40
-206 -56 -396 -93 -508 -99 -93 -4 -116 -2 -175 18 -37 12 -76 29 -87 36 -11
8 -26 14 -35 14 -13 0 -124 50 -215 97 -16 9 -52 27 -80 41 -27 14 -61 33 -74
44 -13 10 -32 18 -42 18 -11 0 -19 4 -19 9 0 5 -16 15 -35 21 -19 6 -35 16
-35 21 0 5 -12 12 -27 15 -16 4 -41 17 -58 30 -27 20 -55 36 -194 111 -25 14
-56 33 -69 44 -14 10 -29 19 -33 19 -5 0 -32 16 -59 35 -27 19 -56 35 -64 35
-8 0 -21 6 -28 13 -7 7 -35 26 -63 42 -27 16 -63 39 -78 52 -16 13 -34 23 -40
23 -11 0 -51 23 -133 78 -10 6 -41 24 -68 40 -26 15 -69 41 -95 57 -25 17 -58
37 -73 44 -15 8 -37 22 -47 33 -11 10 -26 18 -33 18 -7 0 -26 11 -42 25 -16
14 -33 25 -39 25 -5 0 -40 20 -77 45 -37 25 -70 45 -73 45 -3 0 -28 16 -57 35
-29 19 -58 35 -65 35 -8 0 -20 6 -27 13 -7 7 -35 26 -63 42 -27 16 -57 34 -65
41 -8 7 -42 27 -75 44 -93 50 -117 64 -165 95 -25 16 -65 39 -90 52 -25 12
-54 28 -65 35 -90 56 -152 92 -197 115 -15 8 -30 18 -33 24 -4 5 -13 9 -21 9
-9 0 -30 11 -47 24 -18 13 -53 34 -79 46 -27 13 -48 27 -48 31 0 4 -19 14 -42
24 -24 9 -62 30 -86 46 -24 16 -47 29 -53 29 -5 0 -15 5 -22 10 -27 22 -89 60
-99 60 -6 0 -33 14 -60 30 -26 17 -52 30 -56 30 -5 0 -23 11 -41 24 -18 13
-58 35 -89 47 -31 12 -74 33 -94 46 -21 13 -42 23 -48 23 -6 0 -37 12 -68 27
-39 19 -78 29 -123 31 -62 4 -68 2 -100 -26 l-34 -30 1 -109 c1 -91 7 -125 34
-213 18 -58 36 -123 40 -146 5 -22 13 -51 18 -65 6 -13 18 -51 27 -84 10 -33
27 -85 38 -115 37 -101 87 -244 103 -295 9 -27 31 -88 48 -135 36 -95 61 -163
84 -230 8 -25 30 -81 48 -125 18 -44 36 -91 40 -105 4 -14 19 -50 34 -81 15
-31 30 -71 34 -89 3 -19 20 -62 36 -97 17 -35 30 -68 30 -73 0 -6 13 -40 30
-75 16 -35 30 -70 30 -77 0 -7 7 -26 16 -43 9 -16 27 -60 40 -96 13 -37 37
-95 53 -130 16 -35 44 -102 62 -149 17 -47 47 -116 64 -155 18 -38 36 -81 40
-95 4 -14 21 -49 36 -79 16 -30 29 -60 29 -68 0 -8 18 -54 41 -101 78 -164 89
-189 89 -195 0 -4 13 -35 29 -69 16 -35 38 -83 49 -108 12 -25 29 -61 40 -80
11 -19 29 -57 42 -85 12 -27 38 -81 57 -120 45 -87 48 -94 63 -125 6 -14 28
-55 48 -92 20 -36 51 -93 69 -126 17 -32 43 -73 57 -89 14 -17 26 -36 26 -43
0 -13 40 -73 52 -78 4 -2 8 -9 8 -15 0 -7 16 -32 35 -56 19 -24 35 -48 35 -53
0 -5 26 -41 58 -80 31 -39 66 -83 77 -99 11 -16 30 -36 43 -45 12 -8 22 -20
22 -25 0 -11 158 -169 169 -169 3 0 18 -12 32 -27 33 -36 60 -58 140 -113 35
-24 66 -48 67 -52 2 -4 8 -8 14 -8 6 0 25 -10 42 -23 17 -12 45 -29 61 -37 17
-8 44 -24 61 -37 18 -12 56 -34 85 -48 30 -14 70 -34 89 -44 19 -10 64 -32
100 -48 36 -17 99 -46 140 -66 41 -20 88 -39 103 -43 16 -4 52 -19 80 -35 29
-16 60 -29 69 -29 9 0 49 -16 89 -35 41 -19 80 -35 87 -35 8 0 26 -6 40 -14
15 -8 38 -18 52 -23 l25 -10 -25 -13 c-14 -7 -35 -25 -48 -41 -13 -16 -27 -29
-32 -29 -4 0 -32 -16 -61 -35 -30 -19 -63 -35 -74 -35 -12 0 -25 -4 -31 -10
-19 -19 -168 -50 -238 -50 -157 1 -525 69 -876 162 -63 17 -133 34 -155 38
-22 4 -85 19 -140 33 -55 14 -122 30 -150 36 -27 6 -84 20 -125 32 -41 12 -95
25 -120 29 -25 4 -88 18 -140 33 -52 14 -117 28 -145 32 -27 3 -117 21 -200
40 -267 61 -409 89 -475 95 -36 4 -132 20 -215 38 -176 36 -508 97 -615 112
-88 13 -304 54 -405 77 -38 9 -125 18 -192 21 -110 4 -126 2 -166 -17 -72 -35
-82 -52 -82 -140 0 -62 5 -84 25 -120 14 -24 31 -55 39 -70 8 -14 17 -28 21
-31 4 -3 28 -32 55 -65 26 -33 66 -80 90 -105 23 -25 74 -78 111 -119 38 -40
112 -117 165 -171 53 -53 98 -104 102 -113 3 -9 18 -24 34 -34 15 -10 43 -36
63 -57 54 -62 532 -536 681 -678 295 -279 512 -478 523 -478 3 0 23 -17 44
-37 75 -72 99 -93 105 -93 3 0 18 -12 34 -27 48 -46 214 -178 232 -184 9 -4
25 -18 36 -33 11 -14 24 -26 29 -26 5 0 26 -15 47 -32 35 -31 69 -57 179 -142
25 -19 59 -46 75 -60 31 -27 122 -101 140 -114 6 -4 27 -20 47 -37 20 -16 53
-43 74 -60 20 -16 54 -45 74 -62 21 -18 42 -33 48 -33 6 0 15 -6 19 -13 10
-15 105 -94 153 -127 19 -13 42 -32 51 -42 9 -10 21 -18 26 -18 5 0 24 -16 43
-35 19 -19 42 -35 52 -35 10 0 18 -4 18 -10 0 -5 31 -32 69 -60 38 -28 71 -54
73 -58 2 -4 15 -14 29 -22 39 -22 233 -153 239 -161 5 -6 27 -21 99 -64 18
-11 55 -37 82 -57 27 -21 50 -38 53 -38 2 0 41 -26 86 -58 45 -31 94 -65 108
-74 15 -9 32 -21 37 -25 6 -5 35 -26 67 -46 31 -21 62 -44 68 -52 7 -8 17 -15
23 -15 5 0 24 -11 41 -24 17 -13 51 -33 76 -46 25 -12 52 -28 60 -35 8 -7 56
-31 105 -52 266 -117 398 -149 610 -147 72 1 164 6 205 13 41 7 116 16 165 21
50 4 158 22 240 38 205 42 419 83 483 94 29 4 78 15 110 24 31 9 86 23 122 31
36 8 103 25 150 38 47 12 110 28 140 35 30 7 103 27 162 46 59 19 114 34 123
34 8 0 54 14 102 30 47 17 98 30 113 30 15 0 59 11 98 24 39 14 72 20 74 15 2
-5 32 0 68 10 36 11 90 26 120 34 30 9 82 24 115 35 144 48 291 92 306 92 9 0
54 13 100 30 46 16 91 30 99 30 8 0 65 15 125 34 142 45 339 102 390 114 22 5
74 18 115 30 41 11 104 28 140 36 36 9 101 25 145 36 82 20 213 51 320 76 98
22 129 18 185 -21 27 -19 53 -35 57 -35 5 0 28 -14 53 -30 25 -17 63 -39 85
-50 22 -11 67 -35 100 -54 76 -43 260 -136 271 -136 4 0 37 -12 73 -27 36 -14
82 -29 101 -33 19 -4 78 -22 130 -40 52 -18 138 -47 190 -65 52 -17 118 -40
145 -49 28 -10 91 -32 140 -49 50 -17 99 -39 109 -49 11 -10 23 -18 26 -18 4
0 22 -15 41 -32 19 -18 91 -83 159 -145 69 -61 137 -124 151 -140 13 -15 79
-84 144 -153 118 -124 266 -284 315 -342 14 -16 41 -46 60 -67 65 -70 104
-115 228 -259 68 -78 128 -142 133 -142 5 0 9 -7 9 -15 0 -8 16 -27 35 -42 19
-15 35 -32 35 -38 0 -5 11 -21 24 -35 14 -14 40 -43 59 -65 19 -22 52 -60 74
-85 21 -25 63 -76 92 -113 37 -47 59 -67 70 -64 22 7 127 43 231 80 47 17 110
36 140 43 53 12 130 37 290 94 41 15 129 44 195 64 110 34 213 70 385 131 36
13 92 31 125 41 33 9 83 27 112 40 28 13 59 24 68 24 9 0 53 16 96 35 44 19
87 35 95 35 17 0 156 57 260 106 39 19 76 34 83 34 11 0 176 79 248 119 18 10
48 37 68 60 30 37 35 50 35 92 0 42 -5 55 -30 82 -16 18 -30 35 -30 40 0 4 -8
7 -18 7 -10 0 -26 6 -37 13 -32 21 -111 48 -168 57 -28 4 -83 18 -122 30 -38
12 -90 26 -115 30 -25 5 -91 22 -145 38 -55 17 -120 34 -145 37 -25 4 -80 18
-123 31 -43 13 -106 30 -140 38 -34 7 -100 25 -147 39 -47 14 -140 40 -208 59
l-123 33 -82 86 c-103 108 -177 192 -177 199 0 3 -16 21 -35 40 -19 19 -35 40
-35 46 0 7 -10 20 -22 28 -21 15 -14 16 93 16 163 0 257 30 342 110 23 22 45
40 49 40 5 0 8 7 8 15 0 7 6 18 14 22 8 4 25 26 37 48 20 34 24 53 24 127 l-1
87 -69 70 c-39 39 -77 71 -85 71 -8 0 -26 7 -40 14 -43 25 -112 56 -122 56 -6
0 -52 16 -104 35 -51 19 -105 35 -121 35 l-27 0 34 35 c19 19 38 35 42 35 12
0 62 45 148 130 87 88 210 220 210 227 0 6 90 101 191 202 36 36 68 74 72 84
4 9 15 20 24 23 10 4 48 21 86 40 37 19 73 34 79 34 6 0 19 6 27 14 15 13 55
36 189 108 30 15 68 39 86 53 18 14 36 25 41 25 4 0 27 16 51 35 23 19 49 35
56 35 8 0 30 14 48 30 18 17 40 30 47 30 7 0 13 4 13 8 0 4 24 26 53 47 54 41
207 187 207 199 0 3 16 28 35 55 19 26 35 52 35 56 0 3 16 34 35 66 19 33 35
65 35 72 0 7 15 55 34 107 65 181 80 309 52 454 l-13 68 53 54 c29 30 59 63
66 72 7 10 28 28 46 41 17 12 32 26 32 30 0 5 33 44 74 87 40 44 97 107 125
142 28 34 56 62 61 62 6 0 10 5 10 11 0 7 18 33 41 58 22 25 50 57 60 71 11
14 36 46 57 71 20 25 46 58 57 74 11 15 28 36 38 47 9 10 17 21 17 26 0 4 14
23 30 42 16 19 30 38 30 41 0 3 11 18 25 33 13 14 31 41 40 59 8 17 29 47 45
66 17 18 30 38 30 42 0 5 16 32 35 59 19 27 35 54 35 59 0 4 27 54 60 109 34
56 66 116 72 134 7 18 24 53 40 77 15 25 28 51 28 59 0 7 16 42 35 76 19 35
35 68 35 74 0 7 13 40 30 74 17 34 30 68 30 75 0 8 9 31 19 51 40 79 127 360
173 562 24 104 23 299 -2 341 -43 73 -58 89 -108 114 -75 38 -161 43 -267 15
-44 -12 -96 -25 -115 -29 -19 -5 -73 -25 -120 -45 -47 -19 -90 -36 -96 -36 -5
0 -34 -11 -62 -25 -29 -14 -55 -25 -59 -25 -4 0 -35 -13 -68 -29 -33 -16 -94
-43 -135 -61 -41 -17 -83 -35 -92 -40 -10 -6 -23 -10 -29 -10 -7 0 -44 -15
-83 -34 -97 -46 -171 -75 -233 -92 -29 -8 -82 -28 -117 -44 -35 -17 -71 -30
-79 -30 -9 0 -57 -16 -107 -35 -50 -19 -101 -35 -113 -35 -11 0 -73 -15 -136
-34 -102 -30 -237 -57 -295 -60 -14 -1 -22 8 -26 29 -4 17 -21 61 -38 98 -18
37 -32 70 -32 73 0 3 -18 45 -41 92 -81 170 -89 189 -89 199 0 6 -12 28 -26
49 -15 21 -38 66 -52 99 -15 33 -29 62 -32 65 -4 3 -19 30 -34 60 -15 30 -33
62 -40 70 -7 8 -24 38 -38 66 -38 74 -68 127 -82 144 -7 8 -24 35 -38 60 -15
25 -36 56 -47 69 -12 13 -21 32 -21 42 0 10 -5 21 -10 24 -6 3 -29 34 -52 68
-23 34 -48 68 -55 75 -7 7 -16 24 -19 38 -3 13 -10 24 -15 24 -4 0 -28 27 -51
61 -70 99 -88 123 -109 145 -10 11 -19 25 -19 30 0 6 -16 25 -35 44 -19 19
-35 40 -35 47 0 7 -4 13 -9 13 -5 0 -28 26 -52 58 -43 57 -74 93 -116 136 -13
13 -23 28 -23 33 0 6 -16 23 -35 37 -19 15 -35 31 -35 37 0 5 -17 27 -37 47
-21 21 -69 71 -107 112 -125 135 -272 283 -378 380 -56 52 -122 113 -145 135
-22 22 -60 54 -83 70 -22 17 -55 45 -72 63 -17 17 -35 32 -40 32 -4 0 -16 8
-26 18 -33 30 -62 52 -70 52 -5 0 -21 14 -37 30 -16 17 -34 30 -39 30 -6 0
-29 16 -51 35 -22 19 -44 35 -49 35 -5 0 -28 16 -52 35 -23 19 -46 35 -51 35
-5 0 -23 13 -41 30 -18 16 -47 36 -66 45 -18 9 -43 25 -54 35 -12 11 -25 20
-29 20 -4 0 -28 16 -52 35 -24 19 -48 35 -53 35 -17 0 -88 88 -88 109 0 4 -9
19 -21 32 -12 13 -36 47 -54 75 -18 29 -38 55 -44 58 -6 4 -11 15 -11 25 0 10
-7 25 -16 32 -9 7 -34 40 -56 74 -22 33 -46 64 -54 68 -8 4 -14 16 -14 26 0 9
-13 30 -30 46 -16 16 -30 34 -30 40 0 6 -12 22 -26 36 -14 13 -35 39 -46 59
-12 19 -33 49 -47 66 -14 17 -38 46 -53 65 -103 131 -175 219 -203 249 -118
125 -211 220 -216 220 -4 0 -24 17 -46 38 -54 52 -114 102 -122 102 -4 0 -22
13 -41 30 -19 16 -38 29 -41 30 -4 0 -30 16 -59 35 -29 19 -58 35 -65 35 -7 0
-39 12 -71 27 -47 21 -75 26 -139 27 -79 1 -81 1 -128 -39 -26 -21 -47 -44
-47 -51 0 -6 -8 -18 -17 -27 -19 -17 -42 -59 -66 -122 -8 -22 -22 -58 -30 -80
-8 -22 -22 -62 -30 -90 -33 -107 -56 -160 -69 -157 -7 2 -30 12 -51 23 -21 10
-46 19 -57 19 -18 0 -108 36 -152 60 -10 6 -26 10 -37 10 -10 0 -43 11 -72 24
-30 13 -90 33 -135 44 -44 12 -102 30 -128 42 -26 11 -55 20 -64 20 -9 0 -66
15 -127 34 -109 34 -211 61 -335 90 -382 87 -610 133 -700 142 -36 3 -146 19
-245 36 -99 16 -229 34 -290 38 -60 5 -184 19 -275 30 -91 12 -268 25 -395 30
-126 6 -304 14 -395 20 -185 10 -911 10 -1095 0z m5016 -4816 c47 -14 91 -40
149 -91 8 -7 40 -33 70 -59 92 -76 176 -155 258 -239 42 -43 94 -96 115 -116
20 -20 37 -41 37 -47 0 -6 14 -20 30 -32 17 -12 30 -27 30 -34 0 -7 16 -27 35
-46 19 -19 35 -40 35 -47 0 -7 4 -13 8 -13 10 0 109 -131 120 -158 4 -10 17
-32 30 -48 21 -26 72 -108 99 -159 28 -53 83 -177 83 -186 0 -10 33 -90 50
-121 6 -10 10 -26 10 -35 0 -10 16 -56 35 -103 19 -46 35 -91 35 -100 0 -9 12
-45 26 -80 14 -35 38 -113 54 -174 15 -61 35 -136 43 -166 28 -102 76 -344 98
-495 29 -206 38 -338 44 -720 4 -181 11 -352 16 -380 17 -89 57 -153 166 -262
56 -56 115 -109 132 -118 17 -8 31 -19 31 -24 0 -4 12 -14 28 -22 15 -7 48
-26 74 -41 52 -30 114 -43 262 -57 60 -6 102 -15 107 -22 9 -15 -17 -64 -47
-88 -12 -9 -24 -26 -28 -37 -3 -11 -19 -30 -35 -41 l-28 -21 -49 41 c-27 23
-57 47 -66 52 -9 6 -57 38 -108 73 -50 34 -94 62 -97 62 -4 0 -38 16 -77 35
-92 44 -211 95 -225 95 -6 0 -43 11 -83 24 -40 13 -107 29 -148 36 -41 6 -109
18 -150 26 -41 8 -122 24 -180 35 -58 11 -172 33 -255 49 -82 16 -190 34 -240
40 -49 5 -139 21 -200 35 -60 14 -117 25 -127 25 -10 0 -77 20 -149 44 -144
49 -196 82 -217 138 -12 32 -12 40 8 84 12 27 31 59 42 71 12 12 26 31 32 41
35 57 75 119 104 158 17 24 32 49 32 55 0 5 5 15 10 22 21 24 60 88 60 97 0 5
14 32 30 60 17 28 30 54 30 58 0 4 15 39 34 77 37 76 94 220 106 269 5 17 20
65 35 106 15 41 31 98 35 125 5 28 16 97 25 155 21 128 17 279 -9 328 -13 26
-22 32 -49 32 -17 0 -45 -7 -61 -15 -15 -8 -35 -15 -43 -15 -18 0 -234 -217
-266 -267 -13 -21 -36 -49 -50 -63 -15 -14 -27 -30 -27 -37 0 -7 -13 -28 -30
-46 -16 -19 -30 -39 -30 -43 0 -5 -16 -31 -35 -58 -19 -27 -35 -54 -35 -59 0
-6 -6 -18 -14 -26 -7 -9 -22 -34 -33 -56 -12 -22 -35 -68 -52 -101 -17 -34
-31 -67 -31 -74 0 -6 -16 -39 -35 -71 -19 -33 -35 -66 -35 -73 0 -6 -16 -41
-35 -76 -19 -36 -35 -71 -35 -78 0 -15 -50 -61 -67 -62 -6 0 -97 85 -202 189
l-190 188 -10 59 c-6 32 -22 113 -36 179 -25 119 -34 189 -56 483 -9 118 -9
183 0 285 23 255 30 303 56 377 14 41 30 94 36 118 10 46 72 188 114 262 8 14
23 46 35 72 12 25 28 52 36 58 7 7 14 19 14 26 0 7 19 42 42 76 67 102 92 139
103 158 23 40 94 137 109 149 9 7 16 19 16 26 0 7 7 19 16 26 9 7 51 56 92
109 99 124 165 191 210 212 47 22 132 23 203 2z m3805 -3709 c26 -40 4 -154
-55 -274 -17 -36 -31 -69 -31 -73 0 -5 -12 -28 -27 -51 -16 -23 -37 -59 -47
-79 -11 -21 -22 -38 -26 -38 -4 0 -14 -15 -21 -32 -13 -33 -28 -54 -61 -90
-10 -10 -18 -22 -18 -27 0 -5 -17 -27 -37 -49 -21 -22 -49 -55 -63 -73 -14
-18 -38 -44 -53 -59 -16 -14 -52 -47 -80 -75 -29 -27 -62 -57 -74 -65 -12 -8
-58 -43 -104 -78 l-83 -62 -75 6 c-42 4 -116 18 -166 31 -49 14 -110 28 -135
32 -42 7 -93 22 -148 42 -13 5 -31 9 -41 9 -22 0 -33 23 -24 48 9 22 99 112
112 112 6 0 16 10 22 23 6 12 27 35 45 50 19 16 34 35 34 43 0 8 4 14 8 14 11
0 142 175 142 189 0 6 4 11 8 11 5 0 19 19 32 43 27 50 69 97 86 97 15 0 184
90 202 107 7 7 32 21 55 31 23 11 52 28 64 38 12 11 36 28 55 39 18 11 58 34
88 52 56 34 181 97 235 119 17 7 60 13 97 13 62 1 69 -1 84 -24z"/>
<path d="M16497 15206 c-20 -8 -45 -20 -55 -27 -18 -15 -161 -137 -222 -189
-19 -16 -40 -30 -47 -30 -7 0 -13 -4 -13 -9 0 -4 -35 -35 -77 -67 -42 -33 -98
-76 -123 -97 -92 -76 -143 -117 -205 -165 -82 -63 -106 -82 -140 -110 -67 -54
-98 -80 -145 -117 -25 -19 -63 -50 -84 -67 -22 -18 -54 -43 -73 -56 -18 -12
-33 -27 -33 -32 0 -5 -8 -11 -18 -14 -9 -3 -31 -18 -49 -33 -17 -16 -77 -64
-134 -108 -56 -44 -113 -90 -126 -102 -13 -13 -31 -27 -41 -32 -10 -5 -31 -21
-47 -35 -17 -15 -73 -60 -125 -101 -108 -85 -138 -110 -196 -160 -23 -19 -46
-35 -52 -35 -6 0 -15 -6 -19 -13 -4 -8 -36 -35 -71 -62 -35 -26 -62 -53 -60
-60 2 -7 74 -87 162 -178 87 -91 168 -179 179 -195 35 -49 54 -57 93 -36 19
10 34 22 34 26 0 4 15 18 34 30 43 29 200 154 238 191 16 15 32 27 37 27 4 0
22 12 39 28 17 15 36 32 44 37 70 55 220 175 284 230 23 19 47 35 53 35 6 0
11 4 11 8 0 5 29 30 65 57 36 26 65 51 65 55 0 5 9 11 20 15 11 3 32 19 47 36
15 16 33 29 39 29 5 0 25 16 44 35 19 19 40 35 47 35 7 0 13 4 13 8 0 5 29 30
65 57 35 27 67 55 69 62 3 7 11 13 19 13 7 0 26 14 42 30 16 17 34 30 40 30 7
0 20 10 31 21 10 12 60 53 109 91 50 38 94 76 98 84 4 8 14 14 21 14 7 0 25
14 41 30 16 17 34 30 39 30 6 0 23 13 38 29 15 15 47 42 72 59 l43 31 23 -24
c13 -14 29 -25 36 -25 7 0 14 -4 16 -8 3 -10 111 -94 165 -130 28 -19 34 -28
29 -45 -43 -145 -48 -182 -44 -306 4 -102 10 -143 32 -211 15 -47 31 -92 36
-101 4 -8 21 -40 36 -70 50 -98 124 -184 219 -257 33 -25 62 -49 65 -52 18
-23 184 -93 271 -114 186 -46 412 -29 559 42 30 15 66 32 80 37 80 32 245 186
313 292 25 39 57 100 71 136 54 133 59 163 59 334 0 152 -1 166 -28 240 -15
43 -32 82 -36 88 -5 5 -9 15 -9 22 0 20 -89 166 -111 181 -10 7 -19 18 -19 24
0 11 -89 98 -101 98 -3 0 -17 11 -31 24 -38 39 -158 102 -259 138 -92 32 -97
33 -269 33 -171 0 -177 -1 -275 -33 -55 -18 -115 -42 -133 -53 -32 -18 -34
-18 -57 -2 -14 10 -25 21 -25 26 0 4 -6 7 -13 7 -7 0 -26 14 -42 30 -16 17
-33 30 -38 30 -5 0 -26 15 -47 33 -21 17 -50 42 -66 53 -16 12 -53 41 -83 65
-29 24 -62 49 -73 55 -11 6 -32 23 -47 38 -15 14 -31 26 -36 26 -5 0 -16 6
-24 13 -51 43 -187 60 -264 33z"/>
</g>
</svg>
